<svg xmlns="http://www.w3.org/2000/svg" width="800" height="450" viewBox="0 0 800 450" font-family="-apple-system,'Segoe UI',Roboto,'PingFang SC','Microsoft YaHei',sans-serif">
  <rect x="2" y="2" width="796" height="446" rx="16" fill="#ffffff" stroke="#e5e7eb"/>
  <defs>
    <marker id="arrCover" markerWidth="10" markerHeight="10" refX="8" refY="3" orient="auto"><path d="M0,0 L8,3 L0,6 Z" fill="#94a3b8"/></marker>
    <linearGradient id="pdGrad" x1="0" x2="1" y1="0" y2="0">
      <stop offset="0" stop-color="#f59e0b"/>
      <stop offset="1" stop-color="#06b6d4"/>
    </linearGradient>
  </defs>

  <rect x="54" y="68" width="300" height="278" rx="18" fill="#fffbeb" stroke="#f59e0b" stroke-width="1.6"/>
  <text x="204" y="112" fill="#92400e" font-size="22" font-weight="800" text-anchor="middle">PREFILL</text>
  <text x="204" y="136" fill="#f59e0b" font-size="13" font-weight="700" text-anchor="middle">compute-bound</text>
  <g fill="#fef3c7" stroke="#f59e0b" stroke-width="1.2">
    <rect x="86" y="178" width="42" height="30" rx="6"/>
    <rect x="136" y="178" width="42" height="30" rx="6"/>
    <rect x="186" y="178" width="42" height="30" rx="6"/>
    <rect x="236" y="178" width="42" height="30" rx="6"/>
    <rect x="286" y="178" width="42" height="30" rx="6"/>
  </g>
  <rect x="88" y="242" width="232" height="48" rx="10" fill="#fef3c7" stroke="#f59e0b" stroke-width="1.2"/>
  <text x="204" y="271" fill="#92400e" font-size="14" font-weight="700" text-anchor="middle">parallel matmul</text>
  <rect x="88" y="314" width="232" height="12" rx="6" fill="#fde68a"/>
  <rect x="88" y="314" width="214" height="12" rx="6" fill="#f59e0b"/>
  <text x="88" y="342" fill="#6b7280" font-size="12">high FLOP utilization</text>

  <rect x="446" y="68" width="300" height="278" rx="18" fill="#ecfeff" stroke="#06b6d4" stroke-width="1.6"/>
  <text x="596" y="112" fill="#0e7490" font-size="22" font-weight="800" text-anchor="middle">DECODE</text>
  <text x="596" y="136" fill="#06b6d4" font-size="13" font-weight="700" text-anchor="middle">memory-bound</text>
  <g fill="#cffafe" stroke="#06b6d4" stroke-width="1.2">
    <rect x="488" y="174" width="154" height="17" rx="4"/>
    <rect x="488" y="198" width="154" height="17" rx="4"/>
    <rect x="488" y="222" width="154" height="17" rx="4"/>
  </g>
  <path d="M648 207 C662 207 662 226 676 226" fill="none" stroke="#06b6d4" stroke-width="1.8" marker-end="url(#arrDecodeCover)"/>
  <rect x="676" y="207" width="50" height="38" rx="8" fill="#ecfeff" stroke="#06b6d4"/>
  <text x="701" y="231" fill="#0e7490" font-size="12" font-weight="800" text-anchor="middle">+1</text>
  <rect x="488" y="314" width="232" height="12" rx="6" fill="#cffafe"/>
  <rect x="488" y="314" width="216" height="12" rx="6" fill="#06b6d4"/>
  <text x="488" y="342" fill="#6b7280" font-size="12">high HBM bandwidth pressure</text>

  <line x1="374" y1="206" x2="426" y2="206" stroke="#94a3b8" stroke-width="2.2" stroke-dasharray="5 6"/>
  <text x="400" y="194" fill="#64748b" font-size="12" font-weight="700" text-anchor="middle">split</text>
  <rect x="278" y="374" width="244" height="38" rx="19" fill="url(#pdGrad)" opacity="0.95"/>
  <text x="400" y="398" fill="#ffffff" font-size="14" font-weight="800" text-anchor="middle">PD Disaggregation</text>

  <defs>
    <marker id="arrDecodeCover" markerWidth="10" markerHeight="10" refX="8" refY="3" orient="auto"><path d="M0,0 L8,3 L0,6 Z" fill="#06b6d4"/></marker>
  </defs>
</svg>
