<svg xmlns="http://www.w3.org/2000/svg" width="800" height="450" viewBox="0 0 800 450" font-family="JetBrains Mono, ui-monospace, SFMono-Regular, Menlo, Monaco, Consolas, monospace">
  <g transform="translate(20 55)">
    <text x="40" y="36" fill="#6b7280" font-size="11">1. request enters</text>
    <rect x="40" y="48" width="70" height="34" rx="6" fill="#f9fafb" stroke="#d1d5db"/>
    <text x="75" y="70" fill="#1f2937" font-size="11" text-anchor="middle">request</text>
    <line x1="110" y1="65" x2="148" y2="65" stroke="#9ca3af" stroke-width="1.4" marker-end="url(#a3)"/>
    <rect x="150" y="36" width="210" height="170" rx="12" fill="#fff7ed" stroke="#f59e0b" stroke-width="1.4"/>
    <text x="255" y="60" fill="#d97706" font-size="13" font-weight="700" text-anchor="middle">PREFILL pool</text>
    <text x="255" y="78" fill="#6b7280" font-size="10" text-anchor="middle">2. compute KV + first token</text>
    <g fill="#ffedd5" stroke="#f59e0b" stroke-width="1">
      <rect x="172" y="96" width="76" height="44" rx="6"/>
      <rect x="262" y="96" width="76" height="44" rx="6"/>
      <rect x="172" y="150" width="76" height="44" rx="6"/>
      <rect x="262" y="150" width="76" height="44" rx="6"/>
    </g>
    <g fill="#b45309" font-size="10" text-anchor="middle">
      <text x="210" y="122">GPU</text><text x="300" y="122">GPU</text>
      <text x="210" y="176">GPU</text><text x="300" y="176">GPU</text>
    </g>
    <text x="438" y="36" fill="#6b7280" font-size="11" text-anchor="middle">3. KV cache transfer</text>
    <line x1="400" y1="121" x2="478" y2="121" stroke="#e5e7eb" stroke-width="22" stroke-linecap="round"/>
    <line x1="360" y1="121" x2="400" y2="121" stroke="#f59e0b" stroke-width="1.4" marker-end="url(#a3o)"/>
    <circle cx="418" cy="121" r="4" fill="#64748b" opacity=".55"/>
    <circle cx="456" cy="121" r="4" fill="#64748b" opacity=".35"/>
    <text x="438" y="150" fill="#6b7280" font-size="9.5" text-anchor="middle">RDMA / NVLink</text>
    <rect x="478" y="36" width="210" height="170" rx="12" fill="#ecfeff" stroke="#06b6d4" stroke-width="1.4"/>
    <text x="583" y="60" fill="#0891b2" font-size="13" font-weight="700" text-anchor="middle">DECODE pool</text>
    <text x="583" y="78" fill="#6b7280" font-size="10" text-anchor="middle">4. autoregressive generation</text>
    <g fill="#cffafe" stroke="#06b6d4" stroke-width="1">
      <rect x="500" y="96" width="76" height="44" rx="6"/>
      <rect x="590" y="96" width="76" height="44" rx="6"/>
      <rect x="500" y="150" width="76" height="44" rx="6"/>
      <rect x="590" y="150" width="76" height="44" rx="6"/>
    </g>
    <g fill="#0891b2" font-size="10" text-anchor="middle">
      <text x="538" y="122">GPU</text><text x="628" y="122">GPU</text>
      <text x="538" y="176">GPU</text><text x="628" y="176">GPU</text>
    </g>
    <line x1="688" y1="121" x2="726" y2="121" stroke="#06b6d4" stroke-width="1.4" marker-end="url(#a3d)"/>
    <text x="700" y="150" fill="#0891b2" font-size="10" text-anchor="middle">tokens</text>
    <rect x="150" y="232" width="210" height="74" rx="10" fill="#fff7ed" stroke="#fed7aa"/>
    <text x="255" y="256" fill="#d97706" font-size="11" text-anchor="middle" font-weight="700">optimization target</text>
    <text x="255" y="278" fill="#1f2937" font-size="11" text-anchor="middle">TTFT ↓ · throughput ↑</text>
    <text x="255" y="296" fill="#6b7280" font-size="10" text-anchor="middle">large batch · compute parallelism</text>
    <rect x="478" y="232" width="210" height="74" rx="10" fill="#ecfeff" stroke="#a5f3fc"/>
    <text x="583" y="256" fill="#0891b2" font-size="11" text-anchor="middle" font-weight="700">optimization target</text>
    <text x="583" y="278" fill="#1f2937" font-size="11" text-anchor="middle">TPOT ↓ · smooth streaming</text>
    <text x="583" y="296" fill="#6b7280" font-size="10" text-anchor="middle">no prefill interruption</text>
    <line x1="255" y1="206" x2="255" y2="232" stroke="#f59e0b" stroke-dasharray="3 3" opacity=".35"/>
    <line x1="583" y1="206" x2="583" y2="232" stroke="#06b6d4" stroke-dasharray="3 3" opacity=".35"/>
  </g>
  <defs>
    <marker id="a3" markerWidth="8" markerHeight="8" refX="4" refY="4" orient="auto"><path d="M0,0 L8,4 L0,8 z" fill="#9ca3af"/></marker>
    <marker id="a3o" markerWidth="8" markerHeight="8" refX="4" refY="4" orient="auto"><path d="M0,0 L8,4 L0,8 z" fill="#f59e0b"/></marker>
    <marker id="a3d" markerWidth="8" markerHeight="8" refX="4" refY="4" orient="auto"><path d="M0,0 L8,4 L0,8 z" fill="#06b6d4"/></marker>
  </defs>
</svg>
